<svg width="68" height="24" viewBox="0 0 68 24" fill="none" xmlns="http://www.w3.org/2000/svg">
<path d="M55.014 22V7.502H57.28V22H55.014ZM52.616 12.65V10.45H59.964V12.65H52.616Z" fill="white"/>
<path d="M46.49 22.22C45.4193 22.22 44.4587 21.956 43.608 21.428C42.772 20.9 42.1047 20.1813 41.606 19.272C41.122 18.3627 40.88 17.3433 40.88 16.214C40.88 15.0847 41.122 14.0653 41.606 13.156C42.1047 12.2467 42.772 11.528 43.608 11C44.4587 10.472 45.4193 10.208 46.49 10.208C47.5167 10.208 48.448 10.4207 49.284 10.846C50.1347 11.2567 50.78 11.8213 51.22 12.54L49.966 14.08C49.7313 13.7427 49.4307 13.4347 49.064 13.156C48.6973 12.8773 48.3087 12.6573 47.898 12.496C47.4873 12.3347 47.0913 12.254 46.71 12.254C46.006 12.254 45.3753 12.43 44.818 12.782C44.2753 13.1193 43.8427 13.5887 43.52 14.19C43.1973 14.7913 43.036 15.466 43.036 16.214C43.036 16.962 43.2047 17.6367 43.542 18.238C43.8793 18.8247 44.3267 19.294 44.884 19.646C45.4413 19.998 46.0573 20.174 46.732 20.174C47.128 20.174 47.5093 20.108 47.876 19.976C48.2573 19.844 48.624 19.646 48.976 19.382C49.328 19.118 49.658 18.7953 49.966 18.414L51.22 19.954C50.7507 20.614 50.076 21.1567 49.196 21.582C48.3307 22.0073 47.4287 22.22 46.49 22.22Z" fill="white"/>
<path d="M34.028 22.22C33.0747 22.22 32.202 21.956 31.41 21.428C30.6327 20.9 30.0093 20.1813 29.54 19.272C29.0707 18.3627 28.836 17.336 28.836 16.192C28.836 15.0333 29.0707 14.0067 29.54 13.112C30.024 12.2027 30.6693 11.4913 31.476 10.978C32.2973 10.4647 33.214 10.208 34.226 10.208C34.8273 10.208 35.3773 10.296 35.876 10.472C36.3747 10.648 36.8073 10.8973 37.174 11.22C37.5553 11.528 37.8633 11.8873 38.098 12.298C38.3473 12.7087 38.5013 13.1487 38.56 13.618L38.054 13.442V10.45H40.342V22H38.054V19.25L38.582 19.096C38.494 19.492 38.3107 19.8807 38.032 20.262C37.768 20.6287 37.4233 20.9587 36.998 21.252C36.5873 21.5453 36.1253 21.78 35.612 21.956C35.1133 22.132 34.5853 22.22 34.028 22.22ZM34.622 20.13C35.3113 20.13 35.92 19.9613 36.448 19.624C36.976 19.2867 37.3867 18.8247 37.68 18.238C37.988 17.6367 38.142 16.9547 38.142 16.192C38.142 15.444 37.988 14.7767 37.68 14.19C37.3867 13.6033 36.976 13.1413 36.448 12.804C35.92 12.4667 35.3113 12.298 34.622 12.298C33.9473 12.298 33.346 12.4667 32.818 12.804C32.3047 13.1413 31.894 13.6033 31.586 14.19C31.2927 14.7767 31.146 15.444 31.146 16.192C31.146 16.9547 31.2927 17.6367 31.586 18.238C31.894 18.8247 32.3047 19.2867 32.818 19.624C33.346 19.9613 33.9473 20.13 34.622 20.13Z" fill="white"/>
<path d="M21.974 22.22C20.786 22.22 19.73 21.9707 18.806 21.472C17.8967 20.9587 17.178 20.262 16.65 19.382C16.1367 18.502 15.88 17.49 15.88 16.346C15.88 15.4367 16.0267 14.608 16.32 13.86C16.6133 13.112 17.0167 12.4667 17.53 11.924C18.058 11.3667 18.6813 10.9413 19.4 10.648C20.1333 10.34 20.9253 10.186 21.776 10.186C22.524 10.186 23.2207 10.3327 23.866 10.626C24.5113 10.9047 25.0687 11.2933 25.538 11.792C26.022 12.2907 26.3887 12.8847 26.638 13.574C26.902 14.2487 27.0267 14.9893 27.012 15.796L26.99 16.764H17.552L17.046 14.96H25.032L24.702 15.334V14.806C24.658 14.322 24.4967 13.8893 24.218 13.508C23.9393 13.1267 23.5873 12.826 23.162 12.606C22.7367 12.386 22.2747 12.276 21.776 12.276C20.984 12.276 20.3167 12.43 19.774 12.738C19.2313 13.0313 18.8207 13.4713 18.542 14.058C18.2633 14.63 18.124 15.3413 18.124 16.192C18.124 16.9987 18.2927 17.7027 18.63 18.304C18.9673 18.8907 19.444 19.3453 20.06 19.668C20.676 19.9907 21.3873 20.152 22.194 20.152C22.766 20.152 23.294 20.0567 23.778 19.866C24.2767 19.6753 24.812 19.3307 25.384 18.832L26.528 20.438C26.176 20.79 25.7433 21.098 25.23 21.362C24.7313 21.626 24.196 21.8387 23.624 22C23.0667 22.1467 22.5167 22.22 21.974 22.22Z" fill="white"/>
<path d="M2.156 22V6.6H8.712C9.592 6.6 10.3987 6.82 11.132 7.26C11.88 7.68533 12.474 8.272 12.914 9.02C13.354 9.75333 13.574 10.582 13.574 11.506C13.574 12.342 13.354 13.1193 12.914 13.838C12.474 14.5567 11.8873 15.136 11.154 15.576C10.4207 16.0013 9.60667 16.214 8.712 16.214H4.532V22H2.156ZM11.308 22L7.392 15.048L9.834 14.498L14.19 22.022L11.308 22ZM4.532 13.926H8.932C9.35733 13.926 9.73867 13.8233 10.076 13.618C10.4133 13.398 10.6773 13.1047 10.868 12.738C11.0587 12.3567 11.154 11.9387 11.154 11.484C11.154 10.9707 11.0293 10.5233 10.78 10.142C10.5453 9.746 10.208 9.438 9.768 9.218C9.34267 8.998 8.85867 8.888 8.316 8.888H4.532V13.926Z" fill="white"/>
</svg>
